<svg xmlns="http://www.w3.org/2000/svg" width="250" height="50" viewBox="0 0 250 50" fill="none">
    <path d="M22.6046 11.9035V4.84099L17.6783 2L12.752 4.84099V11.9035L17.6783 9.06252L22.6046 11.9035Z" fill="black">
    </path>
    <path d="M5.74011 4.48492L0 7.7982V19.2639L5.74011 15.9579V4.48492Z" fill="black"></path>
    <path
        d="M29.6161 24.3573L17.6781 31.26L7.49121 25.3746V32.5388L17.6781 38.4242L35.3634 28.2156V7.7982L29.6161 4.48492V24.3573Z"
        fill="black"></path>
    <path
        d="M27.8722 16.7281L17.6781 10.8427L0 21.0513V41.4687L10.1506 47.3251V40.6985L5.73284 38.1481L5.74011 24.9023L17.6781 18.0069L27.8722 23.8923V16.7281Z"
        fill="black"></path>
    <path d="M29.616 38.1554L25.2056 40.6985V47.325L35.3634 41.4687V30.003L29.616 33.2581V38.1554Z" fill="black"></path>
    <path d="M197.147 15.7182H199.734V33.7014H197.147V15.7182Z" fill="black"></path>
    <path
        d="M109.077 31.3327C107.485 29.7414 106.708 27.8741 106.708 25.658V15.7109H109.295V25.658C109.295 27.1548 109.825 28.4336 110.915 29.4944C111.976 30.5843 113.255 31.1147 114.744 31.1147C115.74 31.1147 116.677 30.8677 117.52 30.3663C118.363 29.9013 119.017 29.211 119.511 28.3754C119.976 27.5326 120.23 26.6316 120.23 25.6652V15.7181H122.817V25.6652C122.817 27.8741 122.039 29.7487 120.448 31.34C118.857 32.9312 116.989 33.7087 114.78 33.7087C112.572 33.7087 110.668 32.9312 109.077 31.34V31.3327Z"
        fill="black"></path>
    <path
        d="M140.713 33.7014L128.964 21.9523V33.7014H126.377V15.631L138.184 27.4381V15.7181H140.742V33.7305L140.713 33.7014Z"
        fill="black"></path>
    <path
        d="M146.947 31.0566C145.174 29.3201 144.31 27.2057 144.31 24.7207C144.31 23.7543 144.462 22.7952 144.775 21.8652C145.051 20.9642 145.487 20.1286 146.046 19.3802C146.606 18.6682 147.26 18.0142 148.001 17.4547C148.713 16.9243 149.556 16.4884 150.457 16.1832C151.358 15.8708 152.317 15.7182 153.283 15.7182C155.768 15.7182 157.882 16.5901 159.648 18.3557L157.817 20.1867C156.575 18.9152 155.085 18.2903 153.312 18.2903C151.539 18.2903 150.021 18.9079 148.778 20.1504C147.507 21.422 146.882 22.9115 146.882 24.6844C146.882 26.4573 147.499 27.9758 148.778 29.2183C150.021 30.4899 151.539 31.1147 153.312 31.1147C155.085 31.1147 156.575 30.4899 157.817 29.2547L159.648 31.0566C157.875 32.8295 155.768 33.6942 153.283 33.6942C150.798 33.6942 148.684 32.8222 146.947 31.0566Z"
        fill="black"></path>
    <path
        d="M162.024 15.7182H164.611V23.391H172.959V15.7182H175.546V33.7014H172.959V25.9704H164.611V33.7014H162.024V15.7182Z"
        fill="black"></path>
    <path
        d="M186.336 15.66L195.374 33.7014H192.475L190.201 29.182H182.477L180.232 33.7014H177.333L186.336 15.66ZM188.922 26.5953L186.336 21.451L183.749 26.5953H188.922Z"
        fill="black"></path>
    <path
        d="M217.042 33.6723L205.293 21.9233V33.7014H202.706V15.5946L214.513 27.4018V15.7181H217.071V33.7014L217.042 33.6723Z"
        fill="black"></path>
    <path
        d="M220.042 15.7182H231.283V18.2976H222.615V23.4201H231.283V25.9995H222.615V31.122H231.283V33.7014H220.042V15.7182Z"
        fill="black"></path>
    <path
        d="M234.255 15.7182H241.027C243.512 15.7182 245.626 16.5901 247.392 18.3557C249.128 20.1286 250 22.2357 250 24.7207C250 27.2057 249.128 29.3201 247.392 31.0566C245.619 32.8295 243.512 33.6942 241.027 33.6942H234.255V15.7182ZM240.961 31.122H241.027C242.8 31.122 244.289 30.4971 245.561 29.2256C246.803 27.9831 247.421 26.4645 247.421 24.6916C247.421 22.9187 246.803 21.4292 245.561 20.1577C244.289 18.9152 242.8 18.2976 241.027 18.2976H236.805V31.122H240.969H240.961Z"
        fill="black"></path>
    <path
        d="M54.1387 33.7013H49.2124L56.4202 15.7253H61.0923L68.2274 33.7013H63.2793L62.3929 31.1655H55.0542L54.1387 33.7013ZM60.9397 27.0239L58.7599 20.8551L56.5002 27.0239H60.9397Z"
        fill="black"></path>
    <path d="M87.8599 19.9833V15.7182H103.147V19.9833H97.7924V33.7015H93.2004V19.9833H87.8671H87.8599Z" fill="black">
    </path>
    <path
        d="M82.0472 27.0749H82.0036C84.0526 26.1376 85.484 24.0813 85.484 21.6763C85.484 18.3848 82.8173 15.7254 79.5331 15.7254H70.6323V33.7014H75.2244V27.6343H77.4333L80.8846 33.7014H86.1161L82.0472 27.0749ZM75.2244 23.5945V21.9306H75.2171V19.9906H78.6249C79.8819 19.9906 80.8991 20.7971 80.8991 21.7925C80.8991 22.788 79.8819 23.5945 78.6249 23.5945H75.2317H75.2244Z"
        fill="black"></path>
</svg>