<svg version="1.1" id="Layer_1" xmlns="http://www.w3.org/2000/svg" xmlns:xlink="http://www.w3.org/1999/xlink" x="0px"
    y="0px" viewBox="0 0 486.2 121.5" style="enable-background:new 0 0 486.2 121.5;" xml:space="preserve">
    <style type="text/css">
        .st0 {
            fill: #231F20;
        }
    </style>
    <g>
        <g>
            <g>
                <path class="st0" d="M470.2,90.7v-62c0-3.2,2.6-5.8,5.8-5.8h8.2v67.9h-14V90.7z" />
                <path class="st0" d="M444.6,84.9c-3.3,4.1-8.6,6.4-15.5,6.4c-10.5,0-16.9-6.4-16.9-15.4c0-9.2,6.7-14.7,18.7-14.8h13.5v-0.9
				c0-5.2-3.5-8.2-10.2-8.2c-4.4,0-9.5,1.5-14.6,4.3l-0.9-2c-2-4.4,0.2-9.7,4.8-11.2c4.3-1.4,8.7-2.2,13.9-2.2
				c13.2,0,20.8,6.6,20.8,17.6l0.1,32.1h-12.1c-0.9,0-1.7-0.8-1.7-1.7v-4H444.6z M444.5,73.9v-4.4h-11.1c-5.4,0-8,1.6-8,5.6
				c0,3.7,2.9,6.2,7.7,6.2C439,81.3,443.6,78.1,444.5,73.9z" />
                <path class="st0" d="M377.1,28.9c0-3.2,2.6-5.8,5.8-5.8h8.1v18h6.8c3.6,0,6.6,2.9,6.6,6.6v5.2H391v21c0,4.1,1.7,5.8,4.8,5.7
				c1.8,0,4-0.6,6.6-1.8l2.9,10.3c-3.7,2.1-8.2,3.4-12.8,3.4c-8.8,0-15.5-5-15.5-15.2V28.9H377.1z" />
                <path class="st0" d="M365.6,26c0,4.6-3.1,7.9-7.6,7.9s-7.6-3.3-7.6-7.9s3.1-7.9,7.6-7.9C362.5,18.1,365.6,21.4,365.6,26z
				 M350.9,90.7V46.9c0-3.2,2.6-5.8,5.8-5.8h8.2v49.6H350.9z" />
                <path class="st0" d="M340.2,86.1c0,14-10.4,23.5-25.6,23.6c-2.2,0-5.8-0.3-9.8-1.7c-5.4-2.1-10.3-9.3-7.1-15.4l0,0
				c4.5,3.2,7.2,5.3,15.3,5.2c7,0,13.1-4.6,13.1-11.3V81c-3.3,4.6-8.3,7.1-14.8,7.1c-12.7,0-21.5-9.5-21.5-23.8
				c0-13.9,8.6-23.3,21.1-23.3c6.7-0.1,11.8,2.6,15.2,7.1v-1.3c0-3.2,2.6-5.8,5.8-5.8h8.2L340.2,86.1L340.2,86.1z M326.2,64.7
				c0-7.6-4.7-12.8-11.5-12.8s-11.5,5.3-11.6,12.8c0.1,7.5,4.7,12.7,11.6,12.7C321.5,77.4,326.2,72.2,326.2,64.7z" />
                <path class="st0" d="M281.3,26c0,4.6-3.1,7.9-7.6,7.9s-7.6-3.3-7.6-7.9s3.1-7.9,7.6-7.9C278.2,18.1,281.3,21.4,281.3,26z
				 M266.7,90.7V46.9c0-3.2,2.6-5.8,5.8-5.8h8.2v49.6H266.7z" />
                <path class="st0" d="M254.5,90.7h-12.3c-0.9,0-1.7-0.8-1.7-1.7v-5.5c-3.5,5-8.8,7.8-15.5,7.8c-14,0-23.2-10.2-23.2-25.3
				c0-15,9.1-25,22.9-25c6.9,0,12.3,2.7,15.9,7.8V29.9c0-3.9,3.2-7.1,7.1-7.1h6.9L254.5,90.7L254.5,90.7z M240.5,66.3
				c0-8-5-13.6-12.3-13.6s-12.3,5.7-12.4,13.6c0.1,8,5,13.6,12.4,13.6C235.5,79.9,240.5,74.3,240.5,66.3z" />
                <path class="st0" d="M178.7,84.9c-3.3,4.1-8.6,6.4-15.5,6.4c-10.5,0-16.9-6.4-16.9-15.4c0-9.2,6.7-14.7,18.7-14.8h13.5v-0.9
				c0-5.2-3.5-8.2-10.2-8.2c-4.4,0-9.5,1.5-14.6,4.3l-0.9-2c-2-4.4,0.2-9.7,4.8-11.2c4.3-1.4,8.7-2.2,13.9-2.2
				c13.2,0,20.8,6.6,20.8,17.6l0.1,32.1h-12.1c-0.9,0-1.7-0.8-1.7-1.7L178.7,84.9L178.7,84.9z M178.6,73.7v-4.3h-11.1
				c-5.4,0-8,1.6-8,5.6c0,3.7,2.9,6.2,7.7,6.2c5.9,0,10.5-3.1,11.4-7.3C178.6,73.9,178.6,73.8,178.6,73.7z" />
            </g>
        </g>
        <g>
            <path class="st0" d="M95.9,42.6c0-0.1-0.1-0.3-0.1-0.4c-0.1-0.3-0.3-0.7-0.4-1l-0.1-0.3c-0.4-1-0.8-2-1.4-3
			C91.3,32.7,87.8,28,83.5,24l-0.2-0.1c-0.9-0.8-1.8-1.7-2.7-2.5c-5.2-4.2-10.9-7.2-17-9.1c-3.9-1-7.7-1.6-11.5-1.6
			c-12.8,0-25,5.6-33.4,15.4c-2.1,2.5-4,5.2-5.4,8c-2.1,3.8-3.9,7.9-5.2,12.3c-0.8,2.8-1.4,5.7-1.8,8.9c-0.2,1.9-0.4,3.9-0.4,5.9
			c0.1,1.6,0.2,3.3,0.3,5c0.2,2.4,0.5,4.6,1,6.7c2.4,11.2,7.7,20.9,15.6,28.6c5.5,5.4,11.9,9.5,18.8,12.2c4.5,1.7,9.1,2.9,13.8,3.4
			c1.3,0.2,2.8,0.3,4.2,0.3h0.6c0.9,0,1.4,0,2,0s1.2,0,2.1-0.1c0.5,0,1.1-0.3,1.1-1c0-0.9-1-1.1-1.9-1.2c-0.4-0.1-0.9-0.1-1.4-0.2
			c-9.9-2.3-18.4-7.1-25.4-14.3c-2.9-3-5.5-6.4-7.5-10c-3.7-6.5-5.9-13.8-6.5-21.7c-0.3-3.7,0-7.6,0.9-11.8c1-4.7,2.7-9.2,5.2-13.7
			c2.3-4.1,5-7.4,8.3-10.3c8.4-7.4,20-10.7,31.2-8.8c4.5,0.8,8.8,2.3,12.7,4.6c4.3,2.5,7.9,5.7,10.8,9.4c1.2,1.5,2.1,2.9,2.9,4.4
			c0,0.1,0.1,0.1,0.2,0.2L95,43c0.1,0.2,0.4,0.3,0.6,0.2h0.1c0.3-0.1,0.4-0.4,0.3-0.7L95.9,42.6z" />
            <path class="st0" d="M116.5,49.9c-2.4-11.2-7.7-20.7-15.6-28.3C90.7,11.8,78.4,6.5,64.3,5.7C59.6,5.5,54.7,5.9,49.8,7
			c-0.1,0-0.2,0.1-0.4,0.1C49.1,7.3,49,7.5,49,7.7s0.1,0.5,0.4,0.6c0.3,0.1,0.5,0.1,0.7,0.1c3.6,0.1,7.2,0.5,10.8,1.4
			c10,2.4,18.7,7.4,25.8,14.9c3.2,3.4,5.9,7.1,8.1,11.1c3.2,5.9,5.1,12.4,5.7,19.3c0.3,3.2,0.1,6.4-0.4,10c-0.5,3.5-1.5,7.1-3,10.6
			c-2.2,5.2-5.1,9.5-8.8,13.1c-6.7,6.5-14.9,10.1-24.5,10.7c-3.4,0.2-6.9-0.1-10.4-0.9c-9.8-2.3-18.1-8.2-23.4-16.7
			c-1.5-2.4-2.8-5-3.7-7.7l-0.2-0.4L26,73.5l0,0c-0.1-0.2-0.2-0.3-0.4-0.3c-0.2-0.1-0.4,0-0.5,0.1c-0.2,0.1-0.3,0.4-0.3,0.6
			c0,0.1,0,0.2,0,0.2c0.1,0.5,0.2,1,0.3,1.5c0.2,1.1,0.5,2.2,0.8,3.4c2.2,8.1,6.4,15.3,12.5,21.3c3.2,3.2,7,6,11.1,8.3
			c1.3,0.7,2.6,1.4,4,2c0.3,0.1,0.6,0.3,1,0.4c0.2,0.1,0.4,0.2,0.6,0.2c5.1,2,10.3,2.9,15.6,2.9c8.5,0,16.8-2.5,23.9-7.2
			c4.9-3.2,9.1-7.4,12.3-12.2c2.1-3,4-6.1,5.5-9.3c3.1-6.5,4.9-13.6,5.2-21.1C117.9,59.3,117.6,54.5,116.5,49.9z" />
        </g>
    </g>
</svg>