<?xml version="1.0" encoding="UTF-8"?>
 <svg xmlns="http://www.w3.org/2000/svg" width="120" height="83"
    viewBox="0 0 120 83" fill="none">
    <path d="M40.1974 44.9172V50.3077H34.8083V58.3914H40.1974V82.6425H50.8592V44.9172H40.1974Z" fill="#F2BA26"></path>
    <path
        d="M17.2033 74.5621L22.1579 70.3759C27.7651 65.3669 29.501 61.7272 29.501 56.3759C29.501 49.9831 24.8809 44.3225 15.8346 44.3225C6.63944 44.3225 0.973017 49.0242 0.332535 57.2419H10.8332C10.8332 54.4044 12.2018 52.5382 14.8209 52.5382C17.4726 52.5382 18.829 54.3466 18.829 57.2027C18.829 60.4465 16.522 62.5046 12.7872 65.835L0.171387 75.9086V82.6458H30.8227V74.5621H17.2033Z"
        fill="#F2BA26"></path>
    <path
        d="M108.947 0.887695V15.7765H92.9555V0.887695H82.2937V15.7765V23.9695V38.6129H92.9555V23.9695H108.947V38.6129H119.609V0.887695H108.947Z"
        fill="#242424"></path>
    <path d="M38.4023 8.95617H51.7484V38.6369H62.4245V8.95617H75.7706V0.860107H38.4023V8.95617Z" fill="#242424"></path>
    <path
        d="M22.2415 0.915039H12.0835L0.493652 38.6774H10.9923L12.8607 32.4043H26.6453L28.5117 38.6774H39.0103L27.4551 0.923296L22.2415 0.915039ZM15.3063 24.199L19.7591 9.24002L24.2119 24.199H15.3063Z"
        fill="#242424"></path>
</svg>