<svg width="1843" height="449" viewBox="0 0 1843 449" fill="none" xmlns="http://www.w3.org/2000/svg">
    <path fill-rule="evenodd" clip-rule="evenodd"
        d="M141.163 448.916L141.353 449V448.916L280.822 195.491C286.369 185.296 278.999 172.871 267.404 172.871L141.353 172.871V0.0838471L141.539 0.083847L141.356 0L141.353 0.00163647V0.0838471L1.88351 253.509C-3.66338 263.704 3.7065 276.129 15.3011 276.129H141.353V448.916H141.163Z"
        fill="url(#paint0_linear_1191_545)" />
    <path
        d="M444.988 131.34C444.988 134.413 444.848 139.722 444.569 147.265C444.569 154.529 444.429 161.374 444.149 167.799H445.407C452.95 155.786 462.309 146.427 473.484 139.722C484.939 133.016 498.629 129.664 514.553 129.664C538.859 129.664 557.718 136.648 571.128 150.617C584.818 164.307 591.662 183.305 591.662 207.611V359.315H538.44V216.412C538.44 203.001 534.669 192.525 527.125 184.981C519.862 177.438 509.385 173.666 495.695 173.666C488.152 173.666 481.307 175.063 475.161 177.857C469.014 180.372 463.706 184.143 459.236 189.172C454.766 193.921 451.274 199.649 448.759 206.354C446.245 213.059 444.988 220.323 444.988 228.146V359.315H391.766V47.5261H444.988V131.34Z"
        fill="black" />
    <path
        d="M664.623 435.586C662.947 435.586 660.153 435.446 656.242 435.167C652.331 435.167 648.28 435.027 644.089 434.748C639.898 434.468 635.987 434.189 632.355 433.909C628.723 433.63 626.488 433.351 625.65 433.071V389.907H628.583C629.142 390.186 630.259 390.466 631.936 390.745C633.891 391.024 635.987 391.164 638.222 391.164C640.736 391.444 643.111 391.583 645.346 391.583C647.581 391.863 649.397 392.002 650.794 392.002C659.734 392.002 666.858 390.047 672.167 386.135C677.475 382.503 681.246 376.217 683.481 367.277C683.481 366.16 683.481 364.204 683.481 361.41C683.761 358.616 683.901 355.403 683.901 351.771C683.901 348.14 683.621 344.368 683.062 340.457C682.783 336.545 682.085 333.053 680.967 329.98L603.858 135.531H660.433L697.311 239.461C699.546 246.445 701.781 253.988 704.016 262.09C706.53 270.192 708.626 277.736 710.302 284.72C712.258 292.822 714.213 300.924 716.169 309.026H717.007C718.963 300.645 721.058 292.403 723.293 284.301C725.249 277.317 727.344 269.913 729.579 262.09C731.814 253.988 734.049 246.445 736.284 239.461L771.905 135.531H825.547L738.799 371.887C734.049 384.18 729.3 394.377 724.55 402.479C719.801 410.86 714.493 417.426 708.626 422.175C702.759 427.204 696.193 430.696 688.929 432.652C681.945 434.608 673.843 435.586 664.623 435.586Z"
        fill="black" />
    <path
        d="M843.593 135.531H895.138V168.638H896.396C904.498 155.786 914.136 146.147 925.312 139.722C936.487 133.016 950.037 129.664 965.961 129.664C980.489 129.664 993.62 132.458 1005.35 138.045C1017.37 143.633 1027.56 151.595 1035.95 161.932C1044.33 172.269 1050.75 184.702 1055.22 199.23C1059.97 213.757 1062.35 229.962 1062.35 247.842C1062.35 266.002 1059.97 282.345 1055.22 296.873C1050.75 311.401 1044.33 323.833 1035.95 334.171C1027.56 344.508 1017.23 352.47 1004.94 358.058C992.922 363.645 979.372 366.439 964.285 366.439C949.199 366.439 935.788 363.366 924.054 357.219C912.6 351.073 903.38 342.273 896.396 330.818H895.138C895.697 335.009 896.116 340.736 896.396 348C896.675 354.984 896.815 363.785 896.815 374.401V434.328H843.593V135.531ZM954.227 324.113C962.888 324.113 970.571 322.297 977.276 318.665C984.261 315.033 989.988 309.864 994.458 303.159C998.928 296.454 1002.28 288.492 1004.52 279.272C1007.03 270.053 1008.29 259.995 1008.29 249.099C1008.29 237.924 1007.17 227.727 1004.94 218.507C1002.7 209.008 999.208 200.906 994.458 194.201C989.988 187.496 984.401 182.327 977.695 178.695C970.99 174.784 963.028 172.828 953.808 172.828C943.751 172.828 934.95 174.784 927.407 178.695C920.143 182.607 913.997 188.054 908.968 195.039C904.218 202.024 900.586 210.126 898.072 219.345C895.837 228.565 894.719 238.483 894.719 249.099C894.719 259.716 895.837 269.634 898.072 278.853C900.586 287.793 904.218 295.616 908.968 302.321C913.997 309.026 920.143 314.334 927.407 318.246C934.95 322.157 943.89 324.113 954.227 324.113Z"
        fill="black" />
    <path
        d="M1194.07 366.02C1176.19 366.02 1160.13 362.947 1145.88 356.8C1131.91 350.654 1120.04 342.273 1110.26 331.656C1100.48 321.04 1092.94 308.607 1087.63 294.359C1082.6 279.831 1080.09 264.325 1080.09 247.842C1080.09 231.079 1082.74 215.573 1088.05 201.325C1093.36 186.797 1100.9 174.225 1110.68 163.609C1120.46 152.992 1132.19 144.75 1145.88 138.883C1159.57 132.737 1174.66 129.664 1191.14 129.664C1207.62 129.664 1222.15 132.458 1234.72 138.045C1247.57 143.354 1258.75 151.037 1268.25 161.094C1279.14 172.828 1287.25 187.216 1292.56 204.259C1297.86 221.021 1300.38 239.88 1300.1 260.833H1132.89C1134.84 280.11 1140.85 295.756 1150.91 307.769C1161.25 319.503 1175.77 325.37 1194.49 325.37C1207.34 325.37 1217.82 322.856 1225.92 317.827C1234.3 312.519 1240.31 305.255 1243.94 296.035H1295.91C1293.11 306.093 1288.78 315.452 1282.92 324.113C1277.33 332.494 1270.2 339.898 1261.54 346.324C1252.88 352.47 1242.83 357.219 1231.37 360.572C1220.2 364.204 1207.76 366.02 1194.07 366.02ZM1191.14 168.218C1173.54 168.218 1160.13 173.666 1150.91 184.562C1141.69 195.458 1135.96 209.706 1133.73 227.307H1245.2C1244.08 208.868 1238.77 194.48 1229.28 184.143C1220.06 173.527 1207.34 168.218 1191.14 168.218Z"
        fill="black" />
    <path
        d="M1380.52 175.762H1381.78C1396.03 146.706 1417.4 132.178 1445.9 132.178C1452.32 132.178 1457.07 132.877 1460.15 134.274V182.048H1458.47C1454 180.93 1449.11 180.372 1443.8 180.372C1426.2 180.092 1411.54 185.819 1399.8 197.553C1388.07 209.008 1382.2 225.491 1382.2 247.004V359.315H1328.98V135.531H1380.52V175.762Z"
        fill="black" />
    <path
        d="M1474.97 135.531H1509.33V110.806C1509.33 88.7347 1515.06 72.5306 1526.51 62.1935C1532.94 56.6059 1541.04 52.5549 1550.82 50.0405C1560.88 47.526 1572.33 46.4085 1585.18 46.6879C1592.73 46.6879 1600.69 47.107 1609.07 47.9451V87.7569C1600.13 87.4775 1592.73 87.6172 1586.86 88.1759C1580.99 88.4553 1576.24 89.5728 1572.61 91.5285C1568.98 93.2048 1566.33 95.8589 1564.65 99.4909C1563.25 103.123 1562.55 108.012 1562.55 114.158V135.531H1608.65V172.409H1562.55V359.315H1509.33V172.409H1474.97V135.531Z"
        fill="black" />
    <path
        d="M1681.85 435.586C1680.18 435.586 1677.38 435.446 1673.47 435.167C1669.56 435.167 1665.51 435.027 1661.32 434.748C1657.13 434.468 1653.22 434.189 1649.58 433.909C1645.95 433.63 1643.72 433.351 1642.88 433.071V389.907H1645.81C1646.37 390.186 1647.49 390.466 1649.16 390.745C1651.12 391.024 1653.22 391.164 1655.45 391.164C1657.97 391.444 1660.34 391.583 1662.58 391.583C1664.81 391.863 1666.63 392.002 1668.02 392.002C1676.96 392.002 1684.09 390.047 1689.4 386.135C1694.7 382.503 1698.48 376.217 1700.71 367.277C1700.71 366.16 1700.71 364.204 1700.71 361.41C1700.99 358.616 1701.13 355.403 1701.13 351.771C1701.13 348.14 1700.85 344.368 1700.29 340.457C1700.01 336.545 1699.31 333.053 1698.2 329.98L1621.09 135.531H1677.66L1714.54 239.461C1716.77 246.445 1719.01 253.988 1721.24 262.09C1723.76 270.192 1725.85 277.736 1727.53 284.72C1729.49 292.822 1731.44 300.924 1733.4 309.026H1734.24C1736.19 300.645 1738.29 292.403 1740.52 284.301C1742.48 277.317 1744.57 269.913 1746.81 262.09C1749.04 253.988 1751.28 246.445 1753.51 239.461L1789.13 135.531H1842.78L1756.03 371.887C1751.28 384.18 1746.53 394.377 1741.78 402.479C1737.03 410.86 1731.72 417.426 1725.85 422.175C1719.99 427.204 1713.42 430.696 1706.16 432.652C1699.17 434.608 1691.07 435.586 1681.85 435.586Z"
        fill="black" />
    <defs>
        <linearGradient id="paint0_linear_1191_545" x1="141.353" y1="0" x2="141.353" y2="449"
            gradientUnits="userSpaceOnUse">
            <stop stop-color="black" />
            <stop offset="1" stop-color="black" />
        </linearGradient>
    </defs>
</svg>