<svg xmlns="http://www.w3.org/2000/svg" xmlns:xlink="http://www.w3.org/1999/xlink" width="1920" zoomAndPan="magnify"
    viewBox="0 0 1440 809.999993" height="1080" preserveAspectRatio="xMidYMid meet" version="1.0">
    <defs>
        <clipPath id="53eb7a1ac0">
            <path d="M 7.136719 277 L 190.886719 277 L 190.886719 462 L 7.136719 462 Z M 7.136719 277 "
                clip-rule="nonzero" />
        </clipPath>
        <clipPath id="1db7b00dc5">
            <path d="M 1028 276.546875 L 1224 276.546875 L 1224 456 L 1028 456 Z M 1028 276.546875 "
                clip-rule="nonzero" />
        </clipPath>
        <clipPath id="c41733df37">
            <path d="M 234 276.546875 L 430 276.546875 L 430 456 L 234 456 Z M 234 276.546875 " clip-rule="nonzero" />
        </clipPath>
        <clipPath id="c0ab76b6a8">
            <path d="M 1240 276.546875 L 1436 276.546875 L 1436 456 L 1240 456 Z M 1240 276.546875 "
                clip-rule="nonzero" />
        </clipPath>
        <clipPath id="f022f75c9c">
            <path d="M 659 276.546875 L 1012 276.546875 L 1012 456 L 659 456 Z M 659 276.546875 " clip-rule="nonzero" />
        </clipPath>
        <clipPath id="b207a19e5b">
            <path d="M 447 284 L 643 284 L 643 463.296875 L 447 463.296875 Z M 447 284 " clip-rule="nonzero" />
        </clipPath>
    </defs>
    <rect x="-144" width="1728" fill="#ffffff" y="-80.999999" height="971.999992" fill-opacity="1" />
    <rect x="-144" width="1728" fill="#545454" y="-80.999999" height="971.999992" fill-opacity="1" />
    <g clip-path="url(#53eb7a1ac0)">
        <path fill="#fafafa"
            d="M 191.097656 395.847656 L 191.097656 381.191406 C 191.097656 363.074219 185.148438 350.683594 174.980469 343.394531 C 184.320312 336.710938 190.121094 325.765625 191.023438 310.011719 L 191.023438 277.796875 L 152.351562 277.796875 L 152.351562 297.113281 L 172.929688 297.113281 L 172.929688 310.011719 L 172.90625 310.011719 C 171.492188 327.25 161.566406 335.296875 146.035156 335.296875 C 146.035156 335.296875 144.109375 335.296875 144.109375 335.296875 C 141.886719 307.9375 124.429688 295.574219 99.164062 295.574219 C 73.902344 295.574219 56.46875 307.9375 54.222656 335.296875 L 52.273438 335.296875 C 36.738281 335.296875 26.816406 327.25 25.402344 310.011719 L 25.375 310.011719 L 25.375 297.113281 L 45.957031 297.113281 L 45.957031 277.796875 L 7.210938 277.796875 L 7.210938 310.035156 C 8.113281 325.789062 13.914062 336.761719 23.253906 343.417969 C 13.085938 350.710938 7.136719 363.074219 7.136719 381.214844 L 7.136719 395.871094 L 25.253906 395.871094 L 25.253906 381.214844 C 25.253906 360.925781 35.519531 351.539062 52.320312 351.539062 C 52.320312 351.539062 53.929688 351.539062 53.929688 351.539062 L 53.929688 385.261719 C 53.929688 391.3125 54.613281 396.722656 55.859375 401.527344 L 52.175781 401.527344 C 26.425781 401.503906 8.792969 414.402344 7.136719 442.910156 L 7.136719 461.953125 L 63.5625 461.953125 L 63.5625 442.933594 L 25.304688 442.933594 C 26.71875 425.695312 36.640625 417.648438 52.175781 417.648438 L 64.148438 417.648438 C 72.097656 426.765625 84.242188 431.082031 99.117188 431.082031 C 113.992188 431.082031 126.160156 426.765625 134.085938 417.648438 L 146.058594 417.648438 C 161.589844 417.648438 171.515625 425.695312 172.929688 442.933594 L 134.644531 442.933594 L 134.644531 461.953125 L 191.074219 461.953125 L 191.074219 442.910156 C 189.414062 414.378906 171.808594 401.503906 146.058594 401.503906 L 142.375 401.503906 C 143.644531 396.699219 144.300781 391.285156 144.300781 385.238281 L 144.300781 351.515625 L 145.910156 351.515625 C 162.714844 351.515625 172.980469 360.902344 172.980469 381.191406 L 172.980469 395.847656 Z M 99.117188 311.71875 C 114.261719 311.71875 124.039062 319.351562 125.867188 335.6875 C 114.601562 337.296875 105.410156 341.90625 99.191406 349.855469 C 92.949219 341.859375 83.707031 337.273438 72.390625 335.664062 C 74.195312 319.351562 84 311.71875 99.140625 311.71875 Z M 72.050781 385.261719 L 72.050781 352.246094 C 83.4375 355.222656 90.117188 364.488281 90.117188 380.851562 L 90.117188 413.890625 C 78.730469 410.917969 72.050781 401.648438 72.050781 385.289062 Z M 126.183594 385.261719 C 126.183594 401.550781 119.550781 410.820312 108.261719 413.84375 L 108.261719 380.851562 C 108.261719 364.558594 114.894531 355.292969 126.183594 352.292969 Z M 126.183594 385.261719 "
            fill-opacity="1" fill-rule="nonzero" />
    </g>
    <path fill="#fafafa"
        d="M 119.746094 295.746094 C 118.355469 285.601562 109.652344 277.796875 99.117188 277.796875 C 88.582031 277.796875 79.878906 285.601562 78.488281 295.746094 C 84.707031 293.867188 91.632812 292.941406 99.117188 292.941406 C 106.601562 292.941406 113.527344 293.867188 119.746094 295.746094 Z M 119.746094 295.746094 "
        fill-opacity="1" fill-rule="nonzero" />
    <g clip-path="url(#1db7b00dc5)">
        <path fill="#fafafa"
            d="M 1139.902344 401.953125 L 1139.902344 366.066406 L 1191.472656 366.066406 C 1191.472656 333.171875 1173.261719 312.96875 1134.054688 312.503906 C 1134.054688 312.503906 1118.96875 312.503906 1118.96875 312.503906 C 1078.761719 312.503906 1060.152344 332.839844 1060.152344 366.132812 C 1060.152344 399.429688 1078.761719 419.765625 1118.96875 419.765625 L 1192.335938 419.765625 L 1192.335938 455.652344 L 1118.96875 455.652344 C 1056.296875 455.652344 1028.1875 419.765625 1028.1875 366.132812 C 1028.1875 312.503906 1056.296875 276.613281 1118.96875 276.613281 L 1134.054688 276.613281 C 1195.726562 277.214844 1223.503906 312.902344 1223.503906 366.132812 L 1223.503906 402.019531 L 1139.96875 402.019531 Z M 1139.902344 401.953125 "
            fill-opacity="1" fill-rule="nonzero" />
    </g>
    <g clip-path="url(#c41733df37)">
        <path fill="#fafafa"
            d="M 273.824219 455.585938 L 273.824219 375.570312 C 273.824219 331.707031 296.023438 311.4375 332.308594 311.4375 C 368.59375 311.4375 390.789062 331.707031 390.789062 375.570312 L 390.789062 455.585938 L 429.933594 455.585938 L 429.933594 375.570312 C 429.933594 307.1875 390.789062 276.546875 332.308594 276.546875 C 273.824219 276.546875 234.679688 307.1875 234.679688 375.570312 L 234.679688 455.585938 Z M 273.824219 455.585938 "
            fill-opacity="1" fill-rule="nonzero" />
    </g>
    <g clip-path="url(#c0ab76b6a8)">
        <path fill="#fafafa"
            d="M 1279.730469 455.585938 L 1279.730469 375.570312 C 1279.730469 331.707031 1301.925781 311.4375 1338.210938 311.4375 C 1374.496094 311.4375 1396.695312 331.707031 1396.695312 375.570312 L 1396.695312 455.585938 L 1435.839844 455.585938 L 1435.839844 375.570312 C 1435.839844 307.1875 1396.695312 276.546875 1338.210938 276.546875 C 1279.730469 276.546875 1240.585938 307.1875 1240.585938 375.570312 L 1240.585938 455.585938 Z M 1279.730469 455.585938 "
            fill-opacity="1" fill-rule="nonzero" />
    </g>
    <g clip-path="url(#f022f75c9c)">
        <path fill="#fafafa"
            d="M 913.480469 276.546875 C 879.785156 276.546875 852.605469 286.78125 835.527344 308.515625 C 818.445312 286.78125 791.265625 276.546875 757.570312 276.546875 C 699.085938 276.546875 659.945312 307.1875 659.945312 375.570312 L 659.945312 455.585938 L 699.085938 455.585938 L 699.085938 375.570312 C 699.085938 331.707031 721.285156 311.4375 757.570312 311.4375 C 793.855469 311.4375 815.191406 331.042969 815.988281 373.246094 C 815.988281 374.042969 815.921875 374.773438 815.921875 375.570312 L 815.921875 455.585938 L 855.195312 455.585938 L 855.195312 375.570312 C 855.195312 374.773438 855.128906 373.976562 855.128906 373.179688 C 855.929688 330.976562 877.925781 311.4375 913.546875 311.4375 C 949.167969 311.4375 972.03125 331.707031 972.03125 375.570312 L 972.03125 455.585938 L 1011.171875 455.585938 L 1011.171875 375.570312 C 1011.171875 307.1875 972.03125 276.546875 913.546875 276.546875 Z M 913.480469 276.546875 "
            fill-opacity="1" fill-rule="nonzero" />
    </g>
    <g clip-path="url(#b207a19e5b)">
        <path fill="#fafafa"
            d="M 603.65625 284.191406 L 603.65625 364.207031 C 603.65625 408.070312 581.457031 428.339844 545.171875 428.339844 C 508.886719 428.339844 486.6875 408.070312 486.6875 364.207031 L 486.6875 284.191406 L 447.546875 284.191406 L 447.546875 364.207031 C 447.546875 432.589844 486.6875 463.226562 545.171875 463.226562 C 603.65625 463.226562 642.796875 432.589844 642.796875 364.207031 L 642.796875 284.191406 Z M 603.65625 284.191406 "
            fill-opacity="1" fill-rule="nonzero" />
    </g>
</svg>