<svg width="103" height="28" viewBox="0 0 103 28" fill="none" xmlns="http://www.w3.org/2000/svg">
<g clip-path="url(#clip0_5116_173)">
<path d="M27.6541 17.9462V15.7183C27.6541 12.9639 26.7597 11.0806 25.2311 9.9722C26.635 8.95644 27.5075 7.29194 27.6431 4.89713V0H21.8293V2.93605H24.9232V4.89713H24.9195C24.7069 7.51807 23.2149 8.74143 20.8799 8.74143H20.5903C20.2567 4.58202 17.6321 2.7025 13.8344 2.7025C10.0367 2.7025 7.41573 4.58202 7.07848 8.74143H6.78523C4.45017 8.74143 2.95823 7.51807 2.74562 4.89713H2.74195V2.93605H5.83581V0H0.0109971V4.90083C0.146628 7.29564 1.01907 8.96385 2.42303 9.9759C0.894433 11.0843 0 12.9639 0 15.722V17.95H2.72362V15.722C2.72362 12.6376 4.26689 11.2104 6.79256 11.2104H7.0345V16.3373C7.0345 17.2567 7.13714 18.0797 7.32409 18.81H6.77056C2.89958 18.8063 0.249268 20.7674 0 25.101V27.9963H8.48245V25.1047H2.73095C2.94356 22.4838 4.43551 21.2604 6.77056 21.2604H8.57043C9.76545 22.6469 11.591 23.3031 13.8271 23.3031C16.0631 23.3031 17.8923 22.6469 19.0837 21.2604H20.8835C23.2186 21.2604 24.7105 22.4838 24.9232 25.1047H19.168V27.9963H27.6504V25.101C27.4012 20.7637 24.7545 18.8063 20.8835 18.8063H20.33C20.5206 18.076 20.6196 17.253 20.6196 16.3336V11.2067H20.8616C23.3872 11.2067 24.9305 12.6339 24.9305 15.7183V17.9462H27.6541ZM13.8271 5.15663C16.1035 5.15663 17.5734 6.31696 17.8483 8.80074C16.1548 9.04541 14.7728 9.74606 13.8381 10.9546C12.8996 9.73865 11.5103 9.0417 9.80944 8.79703C10.0807 6.31696 11.5543 5.15663 13.8307 5.15663H13.8271ZM9.75812 16.3373V11.3179C11.47 11.7702 12.4744 13.1789 12.4744 15.6664V20.6895C10.7625 20.2373 9.75812 18.8285 9.75812 16.3411V16.3373ZM17.896 16.3373C17.896 18.8137 16.8989 20.2224 15.2017 20.6821V15.6664C15.2017 13.19 16.1988 11.7813 17.896 11.3253V15.3031V16.3373Z" fill="#F9EBDC"/>
<path d="M16.9282 2.72845C16.7193 1.18628 15.4106 0 13.827 0C12.2434 0 10.9348 1.18628 10.7258 2.72845C11.6606 2.443 12.7016 2.30213 13.827 2.30213C14.9524 2.30213 15.9935 2.443 16.9282 2.72845Z" fill="#F9EBDC"/>
</g>
<g clip-path="url(#clip1_5116_173)">
<path d="M86.0613 7.21313V5.14896H88.9989C88.9989 3.25681 87.9617 2.09477 85.7281 2.06801H84.8688C82.5784 2.06801 81.5184 3.2377 81.5184 5.15279C81.5184 7.06787 82.5784 8.23757 84.8688 8.23757H89.0482V10.3017H84.8688C81.2989 10.3017 79.6975 8.23757 79.6975 5.15279C79.6975 2.06801 81.2989 0.00384521 84.8688 0.00384521H85.7281C89.2412 0.0382479 90.8236 2.09094 90.8236 5.15279V7.21695H86.065L86.0613 7.21313Z" fill="#F9EBDC"/>
<path d="M36.7261 10.2979V5.69556C36.7261 3.1727 37.9905 2.00683 40.0575 2.00683C42.1245 2.00683 43.3889 3.1727 43.3889 5.69556V10.2979H45.6187V5.69556C45.6187 1.76218 43.3889 0 40.0575 0C36.7261 0 34.4963 1.76218 34.4963 5.69556V10.2979H36.7261Z" fill="#F9EBDC"/>
<path d="M94.0264 10.2979V5.69556C94.0264 3.1727 95.2908 2.00683 97.3578 2.00683C99.4248 2.00683 100.689 3.1727 100.689 5.69556V10.2979H102.919V5.69556C102.919 1.76218 100.689 0 97.3578 0C94.0264 0 91.7966 1.76218 91.7966 5.69556V10.2979H94.0264Z" fill="#F9EBDC"/>
<path d="M73.1633 0C71.244 0 69.6957 0.588669 68.7227 1.83863C67.7498 0.588669 66.2015 0 64.2821 0C60.9507 0 58.7209 1.76218 58.7209 5.69556V10.2979H60.9507V5.69556C60.9507 3.1727 62.2151 2.00683 64.2821 2.00683C66.3491 2.00683 67.5643 3.13447 67.6097 5.56177C67.6097 5.60765 67.606 5.64969 67.606 5.69556V10.2979H69.8433V5.69556C69.8433 5.64969 69.8395 5.60382 69.8395 5.55795C69.8849 3.13065 71.138 2.00683 73.1671 2.00683C75.1963 2.00683 76.4985 3.1727 76.4985 5.69556V10.2979H78.7283V5.69556C78.7283 1.76218 76.4985 0 73.1671 0L73.1633 0Z" fill="#F9EBDC"/>
<path d="M55.5144 0.439575V5.0419C55.5144 7.56476 54.25 8.73063 52.183 8.73063C50.116 8.73063 48.8516 7.56476 48.8516 5.0419V0.439575H46.6218V5.0419C46.6218 8.97527 48.8516 10.7375 52.183 10.7375C55.5144 10.7375 57.7442 8.97527 57.7442 5.0419V0.439575H55.5144Z" fill="#F9EBDC"/>
<path d="M86.2695 24.9191V22.8549H89.2072C89.2072 20.9627 88.1699 19.8007 85.9364 19.7739H85.077C82.7867 19.7739 81.7267 20.9436 81.7267 22.8587C81.7267 24.7738 82.7867 25.9435 85.077 25.9435H89.2564V28.0077H85.077C81.5071 28.0077 79.9058 25.9435 79.9058 22.8587C79.9058 19.7739 81.5071 17.7098 85.077 17.7098H85.9364C89.4495 17.7442 91.0319 19.7969 91.0319 22.8587V24.9229H86.2733L86.2695 24.9191Z" fill="#F9EBDC"/>
<path d="M73.3677 17.7059C71.4484 17.7059 69.9 18.2946 68.9271 19.5446C67.9542 18.2946 66.4058 17.7059 64.4865 17.7059C61.1551 17.7059 58.9253 19.4681 58.9253 23.4015V28.0038H61.1551V23.4015C61.1551 20.8786 62.4195 19.7128 64.4865 19.7128C66.5535 19.7128 67.7687 20.8404 67.8141 23.2677C67.8141 23.3136 67.8103 23.3556 67.8103 23.4015V28.0038H70.0476V23.4015C70.0476 23.3556 70.0439 23.3098 70.0439 23.2639C70.0893 20.8366 71.3424 19.7128 73.3715 19.7128C75.4006 19.7128 76.7029 20.8786 76.7029 23.4015V28.0038H78.9327V23.4015C78.9327 19.4681 76.7029 17.7059 73.3715 17.7059H73.3677Z" fill="#F9EBDC"/>
<path d="M41.0683 20.7869V22.8511H44.006C44.006 24.7432 42.9687 25.9053 40.7352 25.932H39.8758C37.5855 25.932 36.5255 24.7623 36.5255 22.8472C36.5255 20.9322 37.5855 19.7625 39.8758 19.7625H44.0552V17.6983H39.8758C36.3059 17.6983 34.7046 19.7625 34.7046 22.8472C34.7046 25.932 36.3059 27.9962 39.8758 27.9962H40.7352C44.2483 27.9618 45.8307 25.9091 45.8307 22.8472V20.7831H41.0721L41.0683 20.7869Z" fill="#F9EBDC"/>
<path d="M98.0279 19.9574H102.741V17.7059H98.0279C94.1324 17.7059 92.3872 19.9574 92.3872 23.3212V24.1048H100.405C100.364 24.1928 100.311 24.273 100.258 24.3533C99.6974 25.4007 98.6487 25.997 97.036 25.997H92.4175L92.3872 26.0008V28.0038H97.1004C100.996 28.0038 102.741 25.7523 102.741 22.3885V21.8495H94.6208C95.0788 20.6493 96.188 19.9536 98.0279 19.9536V19.9574Z" fill="#F9EBDC"/>
<path d="M57.3696 25.0337V17.7059H52.558C48.9881 17.7059 47.3867 19.7701 47.3867 22.8549C47.3867 25.9397 48.9881 28.0038 52.558 28.0038H57.3658V25.9397H55.0717H52.5542C50.2638 25.9397 49.2038 24.77 49.2038 22.8549C49.2038 20.9398 50.2638 19.7701 52.5542 19.7701H55.0755V25.0337H57.3696Z" fill="#F9EBDC"/>
</g>
<defs>
<clipPath id="clip0_5116_173">
<rect width="27.6541" height="28" fill="white"/>
</clipPath>
<clipPath id="clip1_5116_173">
<rect width="68.4225" height="28" fill="white" transform="translate(34.4963)"/>
</clipPath>
</defs>
</svg>
