<svg xmlns="http://www.w3.org/2000/svg" xmlns:xlink="http://www.w3.org/1999/xlink" width="1920" zoomAndPan="magnify"
    viewBox="0 0 1440 809.999993" height="1080" preserveAspectRatio="xMidYMid meet" version="1.0">
    <defs>
        <clipPath id="f1b3a09d1e">
            <path d="M 1108 174.046875 L 1266 174.046875 L 1266 319 L 1108 319 Z M 1108 174.046875 "
                clip-rule="nonzero" />
        </clipPath>
        <clipPath id="2e4fd40552">
            <path d="M 470 174.046875 L 628 174.046875 L 628 319 L 470 319 Z M 470 174.046875 " clip-rule="nonzero" />
        </clipPath>
        <clipPath id="6ee88b30cc">
            <path d="M 1278 174.046875 L 1436 174.046875 L 1436 319 L 1278 319 Z M 1278 174.046875 "
                clip-rule="nonzero" />
        </clipPath>
        <clipPath id="805c5c19ee">
            <path d="M 812 174.046875 L 1095 174.046875 L 1095 319 L 812 319 Z M 812 174.046875 " clip-rule="nonzero" />
        </clipPath>
        <clipPath id="e4491ad41a">
            <path d="M 1111 421 L 1269 421 L 1269 565.546875 L 1111 565.546875 Z M 1111 421 " clip-rule="nonzero" />
        </clipPath>
        <clipPath id="7eb30148ce">
            <path d="M 815 421 L 1098 421 L 1098 565.546875 L 815 565.546875 Z M 815 421 " clip-rule="nonzero" />
        </clipPath>
        <clipPath id="5577a441a0">
            <path d="M 473 421 L 631 421 L 631 565.546875 L 473 565.546875 Z M 473 421 " clip-rule="nonzero" />
        </clipPath>
        <clipPath id="405e8768e5">
            <path d="M 1287 421 L 1434 421 L 1434 565.546875 L 1287 565.546875 Z M 1287 421 " clip-rule="nonzero" />
        </clipPath>
        <clipPath id="ebe57ae14e">
            <path d="M 652 421 L 794 421 L 794 565.546875 L 652 565.546875 Z M 652 421 " clip-rule="nonzero" />
        </clipPath>
        <clipPath id="b9cc33f1b1">
            <path d="M 0 176 L 385.5 176 L 385.5 563 L 0 563 Z M 0 176 " clip-rule="nonzero" />
        </clipPath>
    </defs>
    <rect x="-144" width="1728" fill="#ffffff" y="-80.999999" height="971.999992" fill-opacity="1" />
    <rect x="-144" width="1728" fill="#ffffff" y="-80.999999" height="971.999992" fill-opacity="1" />
    <g clip-path="url(#f1b3a09d1e)">
        <path fill="#000000"
            d="M 1197.925781 274.902344 L 1197.925781 246.039062 L 1239.363281 246.039062 C 1239.363281 219.582031 1224.730469 203.335938 1193.226562 202.960938 C 1193.226562 202.960938 1181.101562 202.960938 1181.101562 202.960938 C 1148.796875 202.960938 1133.84375 219.316406 1133.84375 246.09375 C 1133.84375 272.871094 1148.796875 289.222656 1181.101562 289.222656 L 1240.058594 289.222656 L 1240.058594 318.085938 L 1181.101562 318.085938 C 1130.746094 318.085938 1108.15625 289.222656 1108.15625 246.09375 C 1108.15625 202.960938 1130.746094 174.097656 1181.101562 174.097656 L 1193.226562 174.097656 C 1242.78125 174.582031 1265.101562 203.28125 1265.101562 246.09375 L 1265.101562 274.953125 L 1197.976562 274.953125 Z M 1197.925781 274.902344 "
            fill-opacity="1" fill-rule="nonzero" />
    </g>
    <g clip-path="url(#2e4fd40552)">
        <path fill="#000000"
            d="M 502 318.03125 L 502 253.683594 C 502 218.40625 519.835938 202.105469 548.992188 202.105469 C 578.148438 202.105469 595.984375 218.40625 595.984375 253.683594 L 595.984375 318.03125 L 627.4375 318.03125 L 627.4375 253.683594 C 627.4375 198.683594 595.984375 174.046875 548.992188 174.046875 C 502 174.046875 470.546875 198.683594 470.546875 253.683594 L 470.546875 318.03125 Z M 502 318.03125 "
            fill-opacity="1" fill-rule="nonzero" />
    </g>
    <g clip-path="url(#6ee88b30cc)">
        <path fill="#000000"
            d="M 1310.28125 318.03125 L 1310.28125 253.683594 C 1310.28125 218.40625 1328.117188 202.105469 1357.273438 202.105469 C 1386.429688 202.105469 1404.265625 218.40625 1404.265625 253.683594 L 1404.265625 318.03125 L 1435.71875 318.03125 L 1435.71875 253.683594 C 1435.71875 198.683594 1404.265625 174.046875 1357.273438 174.046875 C 1310.28125 174.046875 1278.828125 198.683594 1278.828125 253.683594 L 1278.828125 318.03125 Z M 1310.28125 318.03125 "
            fill-opacity="1" fill-rule="nonzero" />
    </g>
    <g clip-path="url(#805c5c19ee)">
        <path fill="#000000"
            d="M 1015.984375 174.046875 C 988.910156 174.046875 967.070312 182.277344 953.347656 199.753906 C 939.621094 182.277344 917.78125 174.046875 890.707031 174.046875 C 843.714844 174.046875 812.261719 198.683594 812.261719 253.683594 L 812.261719 318.03125 L 843.714844 318.03125 L 843.714844 253.683594 C 843.714844 218.40625 861.550781 202.105469 890.707031 202.105469 C 919.863281 202.105469 937.003906 217.871094 937.648438 251.8125 C 937.648438 252.453125 937.59375 253.039062 937.59375 253.683594 L 937.59375 318.03125 L 969.152344 318.03125 L 969.152344 253.683594 C 969.152344 253.039062 969.101562 252.398438 969.101562 251.757812 C 969.742188 217.820312 987.417969 202.105469 1016.039062 202.105469 C 1044.664062 202.105469 1063.03125 218.40625 1063.03125 253.683594 L 1063.03125 318.03125 L 1094.484375 318.03125 L 1094.484375 253.683594 C 1094.484375 198.683594 1063.03125 174.046875 1016.039062 174.046875 Z M 1015.984375 174.046875 "
            fill-opacity="1" fill-rule="nonzero" />
    </g>
    <path fill="#000000"
        d="M 767.03125 180.191406 L 767.03125 244.542969 C 767.03125 279.816406 749.191406 296.121094 720.035156 296.121094 C 690.878906 296.121094 673.042969 279.816406 673.042969 244.542969 L 673.042969 180.191406 L 641.589844 180.191406 L 641.589844 244.542969 C 641.589844 299.539062 673.042969 324.179688 720.035156 324.179688 C 767.03125 324.179688 798.484375 299.539062 798.484375 244.542969 L 798.484375 180.191406 Z M 767.03125 180.191406 "
        fill-opacity="1" fill-rule="nonzero" />
    <g clip-path="url(#e4491ad41a)">
        <path fill="#000000"
            d="M 1200.863281 522.46875 L 1200.863281 493.605469 L 1242.300781 493.605469 C 1242.300781 467.148438 1227.667969 450.902344 1196.164062 450.527344 C 1196.164062 450.527344 1184.039062 450.527344 1184.039062 450.527344 C 1151.730469 450.527344 1136.78125 466.882812 1136.78125 493.660156 C 1136.78125 520.4375 1151.730469 536.792969 1184.039062 536.792969 L 1242.996094 536.792969 L 1242.996094 565.652344 L 1184.039062 565.652344 C 1133.683594 565.652344 1111.09375 536.792969 1111.09375 493.660156 C 1111.09375 450.527344 1133.683594 421.667969 1184.039062 421.667969 L 1196.164062 421.667969 C 1245.71875 422.148438 1268.039062 450.847656 1268.039062 493.660156 L 1268.039062 522.519531 L 1200.914062 522.519531 Z M 1200.863281 522.46875 "
            fill-opacity="1" fill-rule="nonzero" />
    </g>
    <g clip-path="url(#7eb30148ce)">
        <path fill="#000000"
            d="M 1018.871094 421.613281 C 991.796875 421.613281 969.953125 429.84375 956.230469 447.320312 C 942.507812 429.84375 920.664062 421.613281 893.589844 421.613281 C 846.597656 421.613281 815.144531 446.253906 815.144531 501.25 L 815.144531 565.597656 L 846.597656 565.597656 L 846.597656 501.25 C 846.597656 465.972656 864.433594 449.671875 893.589844 449.671875 C 922.746094 449.671875 939.890625 465.441406 940.53125 499.378906 C 940.53125 500.019531 940.476562 500.609375 940.476562 501.25 L 940.476562 565.597656 L 972.035156 565.597656 L 972.035156 501.25 C 972.035156 500.609375 971.984375 499.964844 971.984375 499.324219 C 972.625 465.386719 990.300781 449.671875 1018.921875 449.671875 C 1047.546875 449.671875 1065.917969 465.972656 1065.917969 501.25 L 1065.917969 565.597656 L 1097.371094 565.597656 L 1097.371094 501.25 C 1097.371094 446.253906 1065.917969 421.613281 1018.921875 421.613281 Z M 1018.871094 421.613281 "
            fill-opacity="1" fill-rule="nonzero" />
    </g>
    <g clip-path="url(#5577a441a0)">
        <path fill="#000000"
            d="M 563.25 464.691406 L 563.25 493.554688 L 604.6875 493.554688 C 604.6875 520.007812 590.058594 536.257812 558.550781 536.632812 C 558.550781 536.632812 546.429688 536.632812 546.429688 536.632812 C 514.121094 536.632812 499.167969 520.277344 499.167969 493.5 C 499.167969 466.722656 514.121094 450.367188 546.429688 450.367188 L 605.382812 450.367188 L 605.382812 421.507812 L 546.429688 421.507812 C 496.070312 421.507812 473.480469 450.367188 473.480469 493.5 C 473.480469 536.632812 496.070312 565.492188 546.429688 565.492188 L 558.550781 565.492188 C 608.105469 565.011719 630.429688 536.3125 630.429688 493.5 L 630.429688 464.636719 L 563.304688 464.636719 Z M 563.25 464.691406 "
            fill-opacity="1" fill-rule="nonzero" />
    </g>
    <g clip-path="url(#405e8768e5)">
        <path fill="#000000"
            d="M 1366.726562 453.09375 L 1433.210938 453.09375 L 1433.210938 421.613281 L 1366.726562 421.613281 C 1311.777344 421.613281 1287.15625 453.09375 1287.15625 500.125 L 1287.15625 511.082031 L 1400.261719 511.082031 C 1399.675781 512.3125 1398.925781 513.433594 1398.179688 514.558594 C 1390.277344 529.203125 1375.484375 537.539062 1352.734375 537.539062 L 1287.585938 537.539062 C 1287.585938 537.539062 1287.15625 537.59375 1287.15625 537.59375 L 1287.15625 565.597656 L 1353.644531 565.597656 C 1408.59375 565.597656 1433.210938 534.121094 1433.210938 487.085938 L 1433.210938 479.550781 L 1318.664062 479.550781 C 1325.125 462.765625 1340.773438 453.039062 1366.726562 453.039062 Z M 1366.726562 453.09375 "
            fill-opacity="1" fill-rule="nonzero" />
    </g>
    <g clip-path="url(#ebe57ae14e)">
        <path fill="#000000"
            d="M 793.195312 524.070312 L 793.195312 421.613281 L 725.324219 421.613281 C 674.964844 421.613281 652.375 450.472656 652.375 493.605469 C 652.375 536.738281 674.964844 565.597656 725.324219 565.597656 L 793.140625 565.597656 L 793.140625 536.738281 L 760.78125 536.738281 C 760.78125 536.738281 725.269531 536.738281 725.269531 536.738281 C 692.960938 536.738281 678.007812 520.382812 678.007812 493.605469 C 678.007812 466.828125 692.960938 450.472656 725.269531 450.472656 L 760.835938 450.472656 L 760.835938 524.070312 Z M 793.195312 524.070312 "
            fill-opacity="1" fill-rule="nonzero" />
    </g>
    <g clip-path="url(#b9cc33f1b1)">
        <path fill="#000000"
            d="M 385.5 424.234375 L 385.5 393.5 C 385.5 355.503906 373.03125 329.523438 351.722656 314.230469 C 371.292969 300.21875 383.457031 277.253906 385.347656 244.21875 L 385.347656 176.660156 L 304.300781 176.660156 L 304.300781 217.164062 L 347.429688 217.164062 L 347.429688 244.21875 L 347.378906 244.21875 C 344.414062 280.375 323.617188 297.25 291.066406 297.25 C 291.066406 297.25 287.03125 297.25 287.03125 297.25 C 282.378906 239.871094 245.792969 213.941406 192.851562 213.941406 C 139.914062 213.941406 103.375 239.871094 98.675781 297.25 L 94.585938 297.25 C 62.035156 297.25 41.238281 280.375 38.273438 244.21875 L 38.222656 244.21875 L 38.222656 217.164062 L 81.351562 217.164062 L 81.351562 176.660156 L 0.152344 176.660156 L 0.152344 244.269531 C 2.042969 277.304688 14.207031 300.320312 33.777344 314.28125 C 12.46875 329.574219 0 355.503906 0 393.550781 L 0 424.289062 L 37.96875 424.289062 L 37.96875 393.550781 C 37.96875 351 59.480469 331.3125 94.6875 331.3125 C 94.6875 331.3125 98.0625 331.3125 98.0625 331.3125 L 98.0625 402.039062 C 98.0625 414.722656 99.492188 426.078125 102.097656 436.152344 L 94.382812 436.152344 C 40.421875 436.101562 3.476562 463.15625 0 522.941406 L 0 562.882812 L 118.246094 562.882812 L 118.246094 522.992188 L 38.070312 522.992188 C 41.035156 486.832031 61.832031 469.957031 94.382812 469.957031 L 119.472656 469.957031 C 136.132812 489.082031 161.578125 498.136719 192.75 498.136719 C 223.921875 498.136719 249.421875 489.082031 266.027344 469.957031 L 291.117188 469.957031 C 323.667969 469.957031 344.464844 486.832031 347.429688 522.992188 L 267.203125 522.992188 L 267.203125 562.882812 L 385.449219 562.882812 L 385.449219 522.941406 C 381.972656 463.105469 345.078125 436.101562 291.117188 436.101562 L 283.402344 436.101562 C 286.058594 426.027344 287.4375 414.671875 287.4375 401.988281 L 287.4375 331.261719 L 290.8125 331.261719 C 326.019531 331.261719 347.53125 350.949219 347.53125 393.5 L 347.53125 424.234375 Z M 192.75 247.796875 C 224.484375 247.796875 244.972656 263.804688 248.808594 298.070312 C 225.199219 301.445312 205.933594 311.109375 192.902344 327.785156 C 179.820312 311.007812 160.453125 301.394531 136.746094 298.019531 C 140.527344 263.804688 161.066406 247.796875 192.800781 247.796875 Z M 136.027344 402.039062 L 136.027344 332.796875 C 159.890625 339.035156 173.894531 358.46875 173.894531 392.785156 L 173.894531 462.082031 C 150.03125 455.839844 136.027344 436.40625 136.027344 402.09375 Z M 249.472656 402.039062 C 249.472656 436.203125 235.570312 455.636719 211.914062 461.980469 L 211.914062 392.785156 C 211.914062 358.621094 225.8125 339.1875 249.472656 332.898438 Z M 249.472656 402.039062 "
            fill-opacity="1" fill-rule="nonzero" />
    </g>
    <path fill="#000000"
        d="M 235.980469 214.300781 C 233.066406 193.023438 214.824219 176.660156 192.75 176.660156 C 170.675781 176.660156 152.433594 193.023438 149.519531 214.300781 C 162.550781 210.363281 177.0625 208.417969 192.75 208.417969 C 208.4375 208.417969 222.949219 210.363281 235.980469 214.300781 Z M 235.980469 214.300781 "
        fill-opacity="1" fill-rule="nonzero" />
</svg>