<svg width="670" height="105" viewBox="0 0 670 105" fill="none" xmlns="http://www.w3.org/2000/svg">
    <path
        d="M504.928 70.2064V50.2135H533.694C533.694 31.8867 523.537 20.6314 501.666 20.3723H493.251C470.824 20.3723 460.444 31.7016 460.444 50.2505C460.444 68.7995 470.824 80.1288 493.251 80.1288H534.176V100.122H493.251C458.294 100.122 442.614 80.1288 442.614 50.2505C442.614 20.3723 458.294 0.379395 493.251 0.379395H501.666C536.067 0.712609 551.562 20.5944 551.562 50.2505V70.2434H504.965L504.928 70.2064Z"
        fill="#F9EBDC" />
    <path
        d="M21.8341 100.085V55.5078C21.8341 31.0721 34.2154 19.7798 54.4556 19.7798C74.6957 19.7798 87.077 31.0721 87.077 55.5078V100.085H108.911V55.5078C108.911 17.4103 87.077 0.342285 54.4556 0.342285C21.8341 0.342285 0 17.4103 0 55.5078V100.085H21.8341Z"
        fill="#F9EBDC" />
    <path
        d="M582.923 100.085V55.5078C582.923 31.0721 595.304 19.7798 615.544 19.7798C635.785 19.7798 648.166 31.0721 648.166 55.5078V100.085H670V55.5078C670 17.4103 648.166 0.342285 615.544 0.342285C582.923 0.342285 561.089 17.4103 561.089 55.5078V100.085H582.923Z"
        fill="#F9EBDC" />
    <path
        d="M378.631 0.342285C359.837 0.342285 344.675 6.04396 335.148 18.1508C325.621 6.04396 310.46 0.342285 291.665 0.342285C259.044 0.342285 237.21 17.4103 237.21 55.5078V100.085H259.044V55.5078C259.044 31.0721 271.425 19.7798 291.665 19.7798C311.905 19.7798 323.805 30.7018 324.25 54.212C324.25 54.6563 324.213 55.0635 324.213 55.5078V100.085H346.121V55.5078C346.121 55.0635 346.084 54.6193 346.084 54.175C346.529 30.6648 358.799 19.7798 378.668 19.7798C398.538 19.7798 411.29 31.0721 411.29 55.5078V100.085H433.124V55.5078C433.124 17.4103 411.29 0.342285 378.668 0.342285L378.631 0.342285Z"
        fill="#F9EBDC" />
    <path
        d="M205.812 4.6001V49.1768C205.812 73.6126 193.43 84.9048 173.19 84.9048C152.95 84.9048 140.569 73.6126 140.569 49.1768V4.6001H118.735V49.1768C118.735 87.2744 140.569 104.342 173.19 104.342C205.812 104.342 227.646 87.2744 227.646 49.1768V4.6001H205.812Z"
        fill="#F9EBDC" />
</svg>