<svg width="21" height="21" viewBox="0 0 21 21" fill="none" xmlns="http://www.w3.org/2000/svg">
<path d="M16.9274 2.38844C14.1508 0.225986 10.7063 -0.195957 7.68363 0.770995C7.5079 0.823738 7.56062 1.10503 7.75393 1.08745C7.98239 1.06987 8.21085 1.05229 8.4393 1.03471H8.45688C8.61504 1.01713 8.75563 0.999548 8.91379 0.981967C9.07196 0.964386 9.21255 0.964386 9.37071 0.964386C13.9047 0.964386 17.5776 4.6388 17.5776 9.17469C17.5776 9.75486 17.5073 10.335 17.4019 10.8976C17.4019 10.9328 17.3843 10.9855 17.3667 11.0207C17.0153 14.3435 14.2035 16.9279 10.7942 16.9279C7.13885 16.9279 4.16889 13.9567 4.16889 10.2999C4.16889 9.82518 4.22161 9.36808 4.30948 8.92855C4.32706 8.85823 4.34463 8.80549 4.3622 8.73516C4.34463 8.78791 4.32706 8.84065 4.30948 8.87581C4.0986 9.56147 3.97558 10.2823 3.95801 11.0031C3.95801 11.2668 3.95801 11.5305 3.97558 11.7942C4.0283 12.5854 4.20404 13.359 4.48522 14.1149C4.67853 14.6072 4.90699 15.0995 5.18817 15.5566C5.4342 15.9609 5.6978 16.3301 6.01413 16.6817C6.06685 16.7345 6.102 16.8048 6.15472 16.8576C6.29531 17.0158 6.4359 17.1564 6.57649 17.2971L6.59406 17.3147C6.73465 17.4377 6.87524 17.5784 7.01583 17.6839C7.03341 17.7014 7.05098 17.719 7.06855 17.7366C7.19157 17.8421 7.31459 17.9476 7.45518 18.0355C7.49032 18.0706 7.54304 18.1058 7.57819 18.1234C7.64849 18.1761 7.71878 18.2113 7.78908 18.264C7.89452 18.3344 7.98239 18.4047 8.08783 18.4574L8.14055 18.4926C8.35144 18.6332 8.56232 18.7211 8.7732 18.8266C8.82593 18.8618 8.91379 18.8794 8.96652 18.9145C9.15983 19.0024 9.33556 19.0903 9.52887 19.1607C9.56402 19.1782 9.61674 19.1958 9.65189 19.2134C9.88035 19.3013 10.0912 19.3716 10.3197 19.442H10.3373C10.39 19.4595 10.4427 19.4771 10.4954 19.4947C10.6009 19.5299 10.7239 19.5474 10.8293 19.5826C10.9875 19.6178 11.1281 19.6529 11.2862 19.6705C11.3214 19.6705 11.3565 19.6881 11.3917 19.6881C11.4268 19.6881 11.4796 19.6881 11.4971 19.7057C11.708 19.7233 11.9013 19.7233 12.1122 19.7233C13.9047 19.7233 15.5567 19.1431 16.8923 18.1761C17.7885 17.4729 18.5793 16.629 19.212 15.6093C19.4053 15.2929 19.5986 14.9764 19.7568 14.6424C21.8129 10.4405 20.6179 5.27172 16.9274 2.38844Z" fill="white"/>
<path d="M9.37058 0.964355C9.21242 0.964355 9.07183 0.964356 8.91366 0.981936C8.77307 0.999517 8.63248 0.999517 8.49189 1.0171C8.47432 1.0171 8.43917 1.0171 8.4216 1.0171C8.36888 1.0171 8.31616 1.03468 8.28101 1.03468C6.27761 1.31597 4.48509 2.30051 3.21978 3.74214C3.06162 3.91795 2.92103 4.11134 2.78044 4.28715C2.72772 4.35748 2.65742 4.44538 2.6047 4.51571C2.56955 4.56845 2.55198 4.60361 2.51683 4.65635C2.42896 4.797 2.32352 4.93765 2.23565 5.0783C-0.646436 9.82515 0.952771 16.1367 5.75039 18.9497C7.85924 20.1803 10.2668 20.5144 12.5163 20.1276C12.7272 20.0924 12.7096 19.776 12.4987 19.7584C12.3581 19.7408 12.2351 19.7408 12.1121 19.7408C12.0769 19.7408 11.8485 19.7232 11.8133 19.7232C11.6552 19.7056 11.743 19.7232 11.5673 19.7056C11.5321 19.7056 11.4443 19.6881 11.4091 19.6881C11.374 19.6881 11.3213 19.6705 11.2861 19.6705C11.1279 19.6529 10.9874 19.6002 10.8292 19.5826C10.7238 19.565 10.6007 19.5298 10.4953 19.4947C10.4426 19.4771 10.3899 19.4595 10.3371 19.4419H10.3196C10.0911 19.3716 9.86264 19.3013 9.65176 19.2134C9.61661 19.1958 9.56389 19.1782 9.52874 19.1606C9.33543 19.0903 9.15969 19.0024 8.96638 18.9145C8.91366 18.8793 8.84337 18.8618 8.79065 18.8266C8.56219 18.7211 8.33373 18.598 8.12284 18.475L8.10527 18.4574C7.99983 18.3871 7.91196 18.3343 7.80652 18.264C7.73622 18.2113 7.66593 18.1761 7.59563 18.1234C7.56049 18.0882 7.50777 18.053 7.47262 18.0354C7.3496 17.93 7.20901 17.8421 7.086 17.7366C7.06842 17.719 7.05085 17.7014 7.03328 17.6838C6.89269 17.5608 6.7521 17.4377 6.61151 17.3146L6.59393 17.2971C6.45334 17.1564 6.31275 17.0158 6.17216 16.8575C6.11944 16.8048 6.06672 16.7345 6.03157 16.6817C5.73282 16.3301 5.45164 15.9433 5.20561 15.5565C4.92443 15.0994 4.69597 14.6072 4.50266 14.1149C4.22148 13.3589 4.06332 12.5854 3.99302 11.7942C3.97545 11.5305 3.97545 11.2668 3.97545 11.0031C3.99302 10.2823 4.11604 9.57902 4.32692 8.87578C4.3445 8.82304 4.36207 8.77029 4.37964 8.73513C5.08259 5.83428 7.6835 3.6894 10.794 3.6894C14.4494 3.6894 17.4193 6.66058 17.4193 10.3174C17.4193 10.4581 17.4018 10.5811 17.4018 10.7218C17.4018 10.8273 17.4018 10.9327 17.3842 11.0382C17.4018 11.0031 17.4018 10.9679 17.4193 10.9152C17.5424 10.3702 17.5951 9.78999 17.5951 9.19224C17.5775 4.63877 13.9046 0.964355 9.37058 0.964355Z" fill="white"/>
</svg>
