<svg xmlns="http://www.w3.org/2000/svg" xmlns:xlink="http://www.w3.org/1999/xlink" width="500" zoomAndPan="magnify"
  viewBox="0 0 375 374.999991" height="500" preserveAspectRatio="xMidYMid meet" version="1.0">
  <defs>
    <clipPath id="f01e30e431">
      <path d="M 33.953125 33 L 340.703125 33 L 340.703125 342 L 33.953125 342 Z M 33.953125 33 " clip-rule="nonzero" />
    </clipPath>
  </defs>
  <rect x="-37.5" width="450" fill="#ffffff" y="-37.499999" height="449.999989" fill-opacity="1" />
  <rect x="-37.5" width="450" fill="#a18a46" y="-37.499999" height="449.999989" fill-opacity="1" />
  <g clip-path="url(#f01e30e431)">
    <path fill="#ffffff"
      d="M 341.042969 230.832031 L 341.042969 206.367188 C 341.042969 176.121094 331.109375 155.441406 314.136719 143.273438 C 329.726562 132.117188 339.414062 113.839844 340.921875 87.542969 L 340.921875 33.773438 L 276.359375 33.773438 L 276.359375 66.011719 L 310.71875 66.011719 L 310.71875 87.542969 L 310.675781 87.542969 C 308.316406 116.324219 291.746094 129.757812 265.816406 129.757812 C 265.816406 129.757812 262.601562 129.757812 262.601562 129.757812 C 258.898438 84.085938 229.75 63.445312 187.578125 63.445312 C 145.40625 63.445312 116.304688 84.085938 112.558594 129.757812 L 109.300781 129.757812 C 83.371094 129.757812 66.804688 116.324219 64.441406 87.542969 L 64.402344 87.542969 L 64.402344 66.011719 L 98.757812 66.011719 L 98.757812 33.773438 L 34.074219 33.773438 L 34.074219 87.585938 C 35.582031 113.882812 45.269531 132.199219 60.859375 143.3125 C 43.886719 155.484375 33.953125 176.121094 33.953125 206.40625 L 33.953125 230.871094 L 64.199219 230.871094 L 64.199219 206.40625 C 64.199219 172.539062 81.335938 156.867188 109.382812 156.867188 C 109.382812 156.867188 112.070312 156.867188 112.070312 156.867188 L 112.070312 213.164062 C 112.070312 223.261719 113.210938 232.296875 115.285156 240.316406 L 109.136719 240.316406 C 66.152344 240.277344 36.722656 261.808594 33.953125 309.394531 L 33.953125 341.1875 L 128.148438 341.1875 L 128.148438 309.4375 L 64.28125 309.4375 C 66.640625 280.65625 83.207031 267.222656 109.136719 267.222656 L 129.125 267.222656 C 142.394531 282.449219 162.667969 289.652344 187.5 289.652344 C 212.328125 289.652344 232.640625 282.449219 245.871094 267.222656 L 265.859375 267.222656 C 291.789062 267.222656 308.355469 280.65625 310.71875 309.4375 L 246.808594 309.4375 L 246.808594 341.1875 L 341.003906 341.1875 L 341.003906 309.394531 C 338.234375 261.769531 308.84375 240.277344 265.859375 240.277344 L 259.710938 240.277344 C 261.828125 232.257812 262.925781 223.21875 262.925781 213.125 L 262.925781 156.828125 L 265.613281 156.828125 C 293.660156 156.828125 310.796875 172.5 310.796875 206.367188 L 310.796875 230.832031 Z M 187.5 90.394531 C 212.777344 90.394531 229.101562 103.136719 232.152344 130.410156 C 213.347656 133.09375 198 140.789062 187.621094 154.058594 C 177.199219 140.707031 161.773438 133.054688 142.882812 130.367188 C 145.894531 103.136719 162.261719 90.394531 187.539062 90.394531 Z M 142.3125 213.164062 L 142.3125 158.046875 C 161.324219 163.015625 172.476562 178.484375 172.476562 205.796875 L 172.476562 260.953125 C 153.46875 255.988281 142.3125 240.519531 142.3125 213.207031 Z M 232.683594 213.164062 C 232.683594 240.355469 221.609375 255.824219 202.761719 260.875 L 202.761719 205.796875 C 202.761719 178.605469 213.835938 163.136719 232.683594 158.128906 Z M 232.683594 213.164062 "
      fill-opacity="1" fill-rule="nonzero" />
  </g>
  <path fill="#ffffff"
    d="M 221.9375 63.730469 C 219.617188 46.796875 205.082031 33.773438 187.5 33.773438 C 169.914062 33.773438 155.382812 46.796875 153.0625 63.730469 C 163.441406 60.597656 175 59.050781 187.5 59.050781 C 199.996094 59.050781 211.554688 60.597656 221.9375 63.730469 Z M 221.9375 63.730469 "
    fill-opacity="1" fill-rule="nonzero" />
  <path fill="#ffffff"
    d="M 158.636719 341.1875 L 158.636719 327.019531 C 158.636719 319.246094 162.585938 315.664062 169.019531 315.664062 C 175.449219 315.664062 179.398438 319.246094 179.398438 327.019531 L 179.398438 341.1875 L 186.359375 341.1875 L 186.359375 327.019531 C 186.359375 314.890625 179.398438 309.476562 169.058594 309.476562 C 158.71875 309.476562 151.757812 314.929688 151.757812 327.019531 L 151.757812 341.1875 L 158.679688 341.1875 Z M 158.636719 341.1875 "
    fill-opacity="1" fill-rule="nonzero" />
  <path fill="#ffffff"
    d="M 208.460938 318.960938 L 208.460938 325.3125 L 217.621094 325.3125 C 217.621094 331.132812 214.40625 334.714844 207.445312 334.796875 C 207.445312 334.796875 204.757812 334.796875 204.757812 334.796875 C 197.632812 334.796875 194.335938 331.171875 194.335938 325.269531 C 194.335938 319.367188 197.632812 315.746094 204.757812 315.746094 L 217.785156 315.746094 L 217.785156 309.394531 L 204.757812 309.394531 C 193.644531 309.394531 188.636719 315.746094 188.636719 325.269531 C 188.636719 334.796875 193.605469 341.144531 204.757812 341.144531 L 207.445312 341.144531 C 218.394531 341.023438 223.320312 334.714844 223.320312 325.269531 L 223.320312 318.921875 L 208.503906 318.921875 Z M 208.460938 318.960938 "
    fill-opacity="1" fill-rule="nonzero" />
</svg>